<mxfile host="app.diagrams.net" modified="2023-07-08T16:35:16.963Z" agent="Mozilla/5.0 (Windows NT 10.0; Win64; x64) AppleWebKit/537.36 (KHTML, like Gecko) Chrome/114.0.0.0 Safari/537.36 Edg/114.0.1823.67" etag="qX52EdvrF5n0zB545COc" version="21.6.1" type="github">
  <diagram name="Page-1" id="e7e014a7-5840-1c2e-5031-d8a46d1fe8dd">
    <mxGraphModel dx="1021" dy="572" grid="1" gridSize="10" guides="1" tooltips="1" connect="1" arrows="1" fold="1" page="1" pageScale="1" pageWidth="1169" pageHeight="826" background="none" math="0" shadow="0">
      <root>
        <mxCell id="0" />
        <mxCell id="1" parent="0" />
        <mxCell id="UZW0-y90bT22BwQiXVyD-42" value="" style="ellipse;html=1;shape=startState;fillColor=#000000;strokeColor=#ff0000;" vertex="1" parent="1">
          <mxGeometry x="415" y="70" width="30" height="30" as="geometry" />
        </mxCell>
        <mxCell id="UZW0-y90bT22BwQiXVyD-43" value="" style="edgeStyle=orthogonalEdgeStyle;html=1;verticalAlign=bottom;endArrow=open;endSize=8;strokeColor=#ff0000;rounded=0;entryX=0.5;entryY=0;entryDx=0;entryDy=0;" edge="1" source="UZW0-y90bT22BwQiXVyD-42" parent="1" target="UZW0-y90bT22BwQiXVyD-44">
          <mxGeometry relative="1" as="geometry">
            <mxPoint x="425" y="160" as="targetPoint" />
          </mxGeometry>
        </mxCell>
        <mxCell id="UZW0-y90bT22BwQiXVyD-49" style="edgeStyle=orthogonalEdgeStyle;rounded=0;orthogonalLoop=1;jettySize=auto;html=1;entryX=0.5;entryY=0;entryDx=0;entryDy=0;strokeColor=#FF0000;" edge="1" parent="1" source="UZW0-y90bT22BwQiXVyD-44" target="UZW0-y90bT22BwQiXVyD-46">
          <mxGeometry relative="1" as="geometry" />
        </mxCell>
        <mxCell id="UZW0-y90bT22BwQiXVyD-44" value="Enter email &amp;amp; password" style="html=1;whiteSpace=wrap;" vertex="1" parent="1">
          <mxGeometry x="375" y="160" width="110" height="50" as="geometry" />
        </mxCell>
        <mxCell id="UZW0-y90bT22BwQiXVyD-46" value="Condition" style="rhombus;whiteSpace=wrap;html=1;fontColor=#000000;fillColor=#ffffc0;strokeColor=#ff0000;" vertex="1" parent="1">
          <mxGeometry x="390" y="260" width="80" height="40" as="geometry" />
        </mxCell>
        <mxCell id="UZW0-y90bT22BwQiXVyD-47" value="Login Failed" style="edgeStyle=orthogonalEdgeStyle;html=1;align=left;verticalAlign=bottom;endArrow=open;endSize=8;strokeColor=#ff0000;rounded=0;entryX=1;entryY=0.5;entryDx=0;entryDy=0;" edge="1" source="UZW0-y90bT22BwQiXVyD-46" parent="1" target="UZW0-y90bT22BwQiXVyD-42">
          <mxGeometry x="-1" relative="1" as="geometry">
            <mxPoint x="590" y="180" as="targetPoint" />
            <Array as="points">
              <mxPoint x="560" y="280" />
              <mxPoint x="560" y="85" />
            </Array>
          </mxGeometry>
        </mxCell>
        <mxCell id="UZW0-y90bT22BwQiXVyD-48" value="Login Success" style="edgeStyle=orthogonalEdgeStyle;html=1;align=left;verticalAlign=top;endArrow=open;endSize=8;strokeColor=#ff0000;rounded=0;" edge="1" source="UZW0-y90bT22BwQiXVyD-46" parent="1" target="UZW0-y90bT22BwQiXVyD-50">
          <mxGeometry x="-1" relative="1" as="geometry">
            <mxPoint x="430" y="360" as="targetPoint" />
          </mxGeometry>
        </mxCell>
        <mxCell id="UZW0-y90bT22BwQiXVyD-52" style="edgeStyle=orthogonalEdgeStyle;rounded=0;orthogonalLoop=1;jettySize=auto;html=1;entryX=0.5;entryY=0;entryDx=0;entryDy=0;strokeColor=#FF0000;" edge="1" parent="1" source="UZW0-y90bT22BwQiXVyD-50" target="UZW0-y90bT22BwQiXVyD-51">
          <mxGeometry relative="1" as="geometry" />
        </mxCell>
        <mxCell id="UZW0-y90bT22BwQiXVyD-50" value="Successfully Logged in" style="html=1;whiteSpace=wrap;" vertex="1" parent="1">
          <mxGeometry x="375" y="363" width="110" height="50" as="geometry" />
        </mxCell>
        <mxCell id="UZW0-y90bT22BwQiXVyD-51" value="" style="ellipse;html=1;shape=endState;fillColor=#000000;strokeColor=#ff0000;" vertex="1" parent="1">
          <mxGeometry x="415" y="480" width="30" height="30" as="geometry" />
        </mxCell>
        <mxCell id="UZW0-y90bT22BwQiXVyD-55" value="End" style="text;html=1;align=center;verticalAlign=middle;resizable=0;points=[];autosize=1;strokeColor=none;fillColor=none;" vertex="1" parent="1">
          <mxGeometry x="410" y="510" width="40" height="30" as="geometry" />
        </mxCell>
        <mxCell id="UZW0-y90bT22BwQiXVyD-56" value="Start" style="text;html=1;align=center;verticalAlign=middle;resizable=0;points=[];autosize=1;strokeColor=none;fillColor=none;" vertex="1" parent="1">
          <mxGeometry x="405" y="40" width="50" height="30" as="geometry" />
        </mxCell>
        <mxCell id="UZW0-y90bT22BwQiXVyD-58" value="" style="ellipse;html=1;shape=startState;fillColor=#000000;strokeColor=#ff0000;" vertex="1" parent="1">
          <mxGeometry x="670" y="70" width="30" height="30" as="geometry" />
        </mxCell>
        <mxCell id="UZW0-y90bT22BwQiXVyD-59" value="" style="edgeStyle=orthogonalEdgeStyle;html=1;verticalAlign=bottom;endArrow=open;endSize=8;strokeColor=#ff0000;rounded=0;entryX=0.5;entryY=0;entryDx=0;entryDy=0;" edge="1" parent="1" source="UZW0-y90bT22BwQiXVyD-58" target="UZW0-y90bT22BwQiXVyD-61">
          <mxGeometry relative="1" as="geometry">
            <mxPoint x="680" y="160" as="targetPoint" />
          </mxGeometry>
        </mxCell>
        <mxCell id="UZW0-y90bT22BwQiXVyD-60" style="edgeStyle=orthogonalEdgeStyle;rounded=0;orthogonalLoop=1;jettySize=auto;html=1;entryX=0.5;entryY=0;entryDx=0;entryDy=0;strokeColor=#FF0000;" edge="1" parent="1" source="UZW0-y90bT22BwQiXVyD-61" target="UZW0-y90bT22BwQiXVyD-62">
          <mxGeometry relative="1" as="geometry" />
        </mxCell>
        <mxCell id="UZW0-y90bT22BwQiXVyD-61" value="Enter Name, Email, PhoneNo, Password." style="html=1;whiteSpace=wrap;" vertex="1" parent="1">
          <mxGeometry x="630" y="160" width="110" height="50" as="geometry" />
        </mxCell>
        <mxCell id="UZW0-y90bT22BwQiXVyD-62" value="Condition" style="rhombus;whiteSpace=wrap;html=1;fontColor=#000000;fillColor=#ffffc0;strokeColor=#ff0000;" vertex="1" parent="1">
          <mxGeometry x="645" y="260" width="80" height="40" as="geometry" />
        </mxCell>
        <mxCell id="UZW0-y90bT22BwQiXVyD-63" value="signup Failed" style="edgeStyle=orthogonalEdgeStyle;html=1;align=left;verticalAlign=bottom;endArrow=open;endSize=8;strokeColor=#ff0000;rounded=0;entryX=1;entryY=0.5;entryDx=0;entryDy=0;" edge="1" parent="1" source="UZW0-y90bT22BwQiXVyD-62" target="UZW0-y90bT22BwQiXVyD-58">
          <mxGeometry x="-1" relative="1" as="geometry">
            <mxPoint x="820" y="230" as="targetPoint" />
            <Array as="points">
              <mxPoint x="820" y="280" />
              <mxPoint x="820" y="85" />
            </Array>
          </mxGeometry>
        </mxCell>
        <mxCell id="UZW0-y90bT22BwQiXVyD-64" value="signup&amp;nbsp;Success" style="edgeStyle=orthogonalEdgeStyle;html=1;align=left;verticalAlign=top;endArrow=open;endSize=8;strokeColor=#ff0000;rounded=0;" edge="1" parent="1" source="UZW0-y90bT22BwQiXVyD-62" target="UZW0-y90bT22BwQiXVyD-66">
          <mxGeometry x="-1" relative="1" as="geometry">
            <mxPoint x="685" y="360" as="targetPoint" />
          </mxGeometry>
        </mxCell>
        <mxCell id="UZW0-y90bT22BwQiXVyD-65" style="edgeStyle=orthogonalEdgeStyle;rounded=0;orthogonalLoop=1;jettySize=auto;html=1;entryX=0.5;entryY=0;entryDx=0;entryDy=0;strokeColor=#FF0000;" edge="1" parent="1" source="UZW0-y90bT22BwQiXVyD-66" target="UZW0-y90bT22BwQiXVyD-67">
          <mxGeometry relative="1" as="geometry" />
        </mxCell>
        <mxCell id="UZW0-y90bT22BwQiXVyD-66" value="Account Created Succeed" style="html=1;whiteSpace=wrap;" vertex="1" parent="1">
          <mxGeometry x="630" y="363" width="110" height="50" as="geometry" />
        </mxCell>
        <mxCell id="UZW0-y90bT22BwQiXVyD-67" value="" style="ellipse;html=1;shape=endState;fillColor=#000000;strokeColor=#ff0000;" vertex="1" parent="1">
          <mxGeometry x="670" y="480" width="30" height="30" as="geometry" />
        </mxCell>
        <mxCell id="UZW0-y90bT22BwQiXVyD-68" value="End" style="text;html=1;align=center;verticalAlign=middle;resizable=0;points=[];autosize=1;strokeColor=none;fillColor=none;" vertex="1" parent="1">
          <mxGeometry x="665" y="510" width="40" height="30" as="geometry" />
        </mxCell>
        <mxCell id="UZW0-y90bT22BwQiXVyD-69" value="Start" style="text;html=1;align=center;verticalAlign=middle;resizable=0;points=[];autosize=1;strokeColor=none;fillColor=none;" vertex="1" parent="1">
          <mxGeometry x="660" y="40" width="50" height="30" as="geometry" />
        </mxCell>
      </root>
    </mxGraphModel>
  </diagram>
</mxfile>
